# xmcd
#
# Track frame offsets:
#	150
#	13400
#	25425
#	36712
#	59050
#	72275
#	85100
#	103000
#	121862
#	139262
#	152287
#	171400
#	182037
#	195212
#	209587
#	222925
#	239575
#	252200
#
# Disc length: 3555 seconds
#
# Revision: 5
# Processed by: cddbd v1.5.1PL0 Copyright (c) Steve Scherf et al.
# Submitted via: audiograbber 1.82.02
#
DISCID=0f0de112
DTITLE=Various Artist - Country and Western
DYEAR=1987
DGENRE=Country
TTITLE0=Mel McBrown - Everything From Jesus To Jack Daniels
TTITLE1=Earl Ricks - Way Down Deep
TTITLE2=Country All Stars - Oh Susanna
TTITLE3=Barbara Nichols - Red Light Lady Love
TTITLE4=Country All Stars - Same Ole Me
TTITLE5=Steve Brown - Just To Satisfy You
TTITLE6=Abilene - Dixieland Delight
TTITLE7=Dolly Merle - Rose Of Cimarron
TTITLE8=Nashville Voices - I'm Gonna Hire A Wino To Decorate Our Home
TTITLE9=Mel and Dorothy - Following The Feeling
TTITLE10=Barbara Nichols - The Trigger
TTITLE11=Crows Grass Band - Wilderness Road
TTITLE12=Mel and Dorothy - I Wouldn't Change You If I Could
TTITLE13=Nashville Voices - Don't Cheat In Our Hometown
TTITLE14=Nashville Voices - Stay Young
TTITLE15=Shelly Jones - Single Women
TTITLE16=Nashville Voices - Tennessee Whiskey
TTITLE17=Country All Stars - I'm Only In It For The Love
EXTD=YEAR: 1987
EXTT0=
EXTT1=
EXTT2=
EXTT3=
EXTT4=
EXTT5=
EXTT6=
EXTT7=
EXTT8=
EXTT9=
EXTT10=
EXTT11=
EXTT12=
EXTT13=
EXTT14=
EXTT15=
EXTT16=
EXTT17=
PLAYORDER=
